<?xml version="1.0" encoding="UTF-8"?><svg id="_图层_2_复制" xmlns="http://www.w3.org/2000/svg" viewBox="0 0 424.12 289.06"><defs><style>.cls-1{fill:#fff;}</style></defs><path class="cls-1" d="M323.98,265.67s-79.52-39.76-53.01-84.82c26.51-45.06,148.38-44.97,148.38-44.97,0,0-.19-65.69-55.99-101.67-76-49-206.36-7.1-206.36-7.1,0,0,86.61,53.09,66.26,95.42C193.79,183.85,.61,164.94,.61,164.94c0,0,17.03,76.17,125.59,101.72,93.66,22.05,197.78-1,197.78-1Z"/><path d="M323.49,265.6c-.08,.15,.09,.47,.2,.49,0,0-.07-.01-.07-.01,0,0-.14-.03-.14-.03-5.64-1.27-11.1-3.25-16.41-5.53-32.09-13.47-66.1-46.66-45.92-83.51,21.33-37.28,85.12-43.87,123.87-43.9,11.49,.09,22.95,.66,34.33,2.26,0,0-.5,.5-.5,.5-3.41-6.72-6.33-13.01-9.31-19.12-5.72-11.9-11.28-23.15-17.77-34.44-.79-1.35-1.56-2.71-2.37-4.04-.79-1.35-.56-3.32,.37-5.87,1.13-3.5,3.44-7.36,2.6-11.09-.24-.88-.81-1.54-1.38-2.22-4.39-5.37-9.85-9.85-15.97-13.16-5.35-2.84-11.01-5.06-16.86-6.53-4.06-.93-8.27-1.9-12.18-2.9-9.35-2.54-18.01-6.47-27.52-8.72-18.93-4.86-39.13-6.92-58.89-7.37-34.25-.77-67.85,2.52-102.43,7.17,0,0,.11-.9,.11-.9,23.54,15.31,51.24,36.87,64.33,62.15,7.44,14.5,7.48,29.88-3.52,42.59C180.53,174.64,55.11,169.82,.57,165.44c0,0,.54-.61,.53-.61,2.47,7.18,6.05,13.98,10.05,20.38,55.04,85.26,175.69,84.64,265.73,73.09,3.71-.52,7.41-1.06,11.11-1.65,.52-.14,.97-.09,1.45,.26,1.12,.83,2.36,3.04,3.39,4.02,.55,.56,1.06,.75,1.55,.85,1.98,.53,3.96,.99,5.95,1.43,7.56,1.56,15.15,2.66,22.83,2.05,0,0,.36-.04,.36-.04,.11-.02-.02,0-.05,.09-.05,.08-.04,.21,.02,.29h0Zm.99,.12c-.06,.1-.17,.26-.34,.37-.15,.11-.39,.16-.4,.17,0,0-.35,.11-.35,.11-8.32,2.87-16.09,7-23.82,11.33,0,0-2.72,1.57-2.72,1.57-1.99,.94-2.28,4.49-3.61,6.05-.39,.48-.85,.61-1.4,.63-3.92,.41-7.83,.78-11.75,1.11-88.4,6.99-204.74-1.03-260.75-79.56C10.46,194.63,3.2,180.44,.13,165.05c0,0-.13-.72-.13-.72,0,0,.66,.11,.66,.11,48.73,4.26,218.04,12.15,225.14-53.74,.96-27.72-30.35-54.65-50.62-70.33-6.27-4.74-12.71-9.26-19.37-13.41,0,0,1.03-.32,1.03-.32,6.32-3.15,12.84-5.78,19.44-8.23C223.16,1.67,274.92-5.94,324.06,5.37c10.7,2.8,21.92,5.71,31.13,12.25,4.61,3.06,8.8,7.66,12.46,11.8,8.39,9.36,15.6,20.06,23.36,29.67,1.91,3.16,5.68,2.98,9.08,3.15,3.43,.08,8.78,.37,10.4,3.2,.98,1.63,1.96,3.27,2.84,4.95,10.36,19.48,14.83,45.27,6.24,66.1-22.31,3.21-44.71,7.47-66.57,12.69-15.8,3.9-31.64,8.57-46.28,15.54-60.05,28.93-18.98,67.06,14.27,97.56,0,0,1.6,1.46,1.6,1.46,0,0,.8,.74,.8,.74,0,0,.4,.37,.4,.37l.2,.18,.1,.09s.05,.05,.05,.05c.15,.04,.37,.39,.32,.55h0Z"/></svg>